HIERARCHY
ROOT Hips
{
	OFFSET 0.00000 0.00000 0.00000
	CHANNELS 6 Xposition Yposition Zposition Zrotation Yrotation Xrotation 
	JOINT LHipJoint
	{
		OFFSET 0 0 0
		CHANNELS 3 Zrotation Yrotation Xrotation
		JOINT LeftUpLeg
		{
			OFFSET 1.53139 -1.83434 0.76626
			CHANNELS 3 Zrotation Yrotation Xrotation
			JOINT LeftLeg
			{
				OFFSET 2.56112 -7.03663 0.00000
				CHANNELS 3 Zrotation Yrotation Xrotation
				JOINT LeftFoot
				{
					OFFSET 2.59983 -7.14299 0.00000
					CHANNELS 3 Zrotation Yrotation Xrotation
					JOINT LeftToeBase
					{
						OFFSET 0.13742 -0.37757 2.00054
						CHANNELS 3 Zrotation Yrotation Xrotation
						End Site
						{
							OFFSET 0.00000 -0.00000 1.02897
						}
					}
				}
			}
		}
	}
	JOINT RHipJoint
	{
		OFFSET 0 0 0
		CHANNELS 3 Zrotation Yrotation Xrotation
		JOINT RightUpLeg
		{
			OFFSET -1.40122 -1.83435 0.76627
			CHANNELS 3 Zrotation Yrotation Xrotation
			JOINT RightLeg
			{
				OFFSET -2.54052 -6.98003 0.00000
				CHANNELS 3 Zrotation Yrotation Xrotation
				JOINT RightFoot
				{
					OFFSET -2.63179 -7.23079 0.00000
					CHANNELS 3 Zrotation Yrotation Xrotation
					JOINT RightToeBase
					{
						OFFSET -0.24131 -0.66299 2.03908
						CHANNELS 3 Zrotation Yrotation Xrotation
						End Site
						{
							OFFSET -0.00000 -0.00000 1.07391
						}
					}
				}
			}
		}
	}
	JOINT LowerBack
	{
		OFFSET 0 0 0
		CHANNELS 3 Zrotation Yrotation Xrotation
		JOINT Spine
		{
			OFFSET 0.01174 2.10302 -0.29778
			CHANNELS 3 Zrotation Yrotation Xrotation
			JOINT Spine1
			{
				OFFSET 0.00772 2.13227 -0.01247
				CHANNELS 3 Zrotation Yrotation Xrotation
				JOINT Neck
				{
					OFFSET 0 0 0
					CHANNELS 3 Zrotation Yrotation Xrotation
					JOINT Neck1
					{
						OFFSET -0.09219 1.60848 0.31481
						CHANNELS 3 Zrotation Yrotation Xrotation
						JOINT Head
						{
							OFFSET 0.13974 1.65456 -0.31134
							CHANNELS 3 Zrotation Yrotation Xrotation
							End Site
							{
								OFFSET 0.04742 1.69515 -0.14578
							}
						}
					}
				}
				JOINT LeftShoulder
				{
					OFFSET 0 0 0
					CHANNELS 3 Zrotation Yrotation Xrotation
					JOINT LeftArm
					{
						OFFSET 3.24909 1.02882 -0.23993
						CHANNELS 3 Zrotation Yrotation Xrotation
						JOINT LeftForeArm
						{
							OFFSET 5.32955 -0.00000 -0.00000
							CHANNELS 3 Zrotation Yrotation Xrotation
							JOINT LeftHand
							{
								OFFSET 3.69232 -0.00000 -0.00000
								CHANNELS 3 Zrotation Yrotation Xrotation
								JOINT LeftFingerBase
								{
									OFFSET 0 0 0
									CHANNELS 3 Zrotation Yrotation Xrotation
									JOINT LeftHandIndex1
									{
										OFFSET 0.53660 -0.00000 -0.00000
										CHANNELS 3 Zrotation Yrotation Xrotation
										End Site
										{
											OFFSET 0.43262 -0.00000 -0.00000
										}
									}
								}
								JOINT LThumb
								{
									OFFSET 0 0 0
									CHANNELS 3 Zrotation Yrotation Xrotation
									End Site
									{
										OFFSET 0.43922 -0.00000 0.43922
									}
								}
							}
						}
					}
				}
				JOINT RightShoulder
				{
					OFFSET 0 0 0
					CHANNELS 3 Zrotation Yrotation Xrotation
					JOINT RightArm
					{
						OFFSET -3.21387 0.93002 -0.34594
						CHANNELS 3 Zrotation Yrotation Xrotation
						JOINT RightForeArm
						{
							OFFSET -5.23431 -0.00000 0.00000
							CHANNELS 3 Zrotation Yrotation Xrotation
							JOINT RightHand
							{
								OFFSET -3.55301 -0.00000 -0.00000
								CHANNELS 3 Zrotation Yrotation Xrotation
								JOINT RightFingerBase
								{
									OFFSET 0 0 0
									CHANNELS 3 Zrotation Yrotation Xrotation
									JOINT RightHandIndex1
									{
										OFFSET -0.77252 -0.00000 -0.00000
										CHANNELS 3 Zrotation Yrotation Xrotation
										End Site
										{
											OFFSET -0.62283 -0.00000 -0.00000
										}
									}
								}
								JOINT RThumb
								{
									OFFSET 0 0 0
									CHANNELS 3 Zrotation Yrotation Xrotation
									End Site
									{
										OFFSET -0.63234 -0.00000 0.63234
									}
								}
							}
						}
					}
				}
			}
		}
	}
}
MOTION
Frames: 12
Frame Time: .0083333
-12.5095 17.8837 12.3821 0.1988 18.9746 0.6249 0.0000 0.0000 0.0000 -15.2762 -10.1811 -6.5382 1.4816 7.6905 21.7778 0.8249 -5.2930 -16.1973 0.7967 -5.6972 -15.9083 0.0000 0.0000 0.0000 15.0363 4.6586 -13.5201 -2.2741 -9.4151 27.1025 -0.0372 12.0840 -8.9813 -0.0094 0.6245 -1.7161 2.1791 2.6948 17.1312 1.0998 4.0780 1.6481 -1.0082 1.9241 -7.7525 -10.3227 -2.2544 -12.9641 3.3978 -0.7825 43.1397 3.4336 -1.3303 18.6090 -0.0000 0.0000 0.0000 -83.7402 2.7489 63.6263 78.7994 -59.5206 -50.3156 -0.0000 0.0000 -5.9501 31.6667 21.4537 12.7130 -7.1250 0.0000 -0.0000 3.1751 54.7355 0.7599 -0.0000 0.0000 0.0000 79.6008 -4.5073 52.5693 -92.3708 59.9788 -62.0530 0.0000 -0.0000 -9.7620 -15.0883 16.5787 -4.3989 7.1250 -0.0000 -0.0000 8.4605 -12.9802 6.4159
-12.5539 17.8946 12.4181 -0.6913 19.9854 0.0728 0.0000 0.0000 0.0000 -14.0643 -9.1974 -6.5954 1.4471 7.6045 21.5191 0.8280 -3.0941 -16.4268 0.8588 -5.9097 -16.5226 0.0000 0.0000 0.0000 16.2532 4.5954 -12.8525 -2.2362 -9.3416 26.8698 -0.1183 10.9082 -9.3423 -0.0194 0.8986 -2.4698 2.8211 2.6433 17.2184 1.4481 4.1633 1.7353 -1.0184 1.9532 -7.6856 -10.3982 -2.2562 -12.8733 3.5255 -0.8037 43.0835 3.5047 -1.3235 18.5521 -0.0000 -0.0000 0.0000 -83.8251 2.8012 63.6012 78.9707 -59.5353 -50.4633 -0.0000 0.0000 -5.7461 31.8052 21.7445 12.9389 -7.1250 0.0000 -0.0000 3.2761 55.0915 0.8125 -0.0000 -0.0000 0.0000 79.3591 -4.5159 52.6704 -92.3810 59.9786 -62.0618 0.0000 -0.0000 -10.1158 -14.7672 16.5918 -4.3046 7.1250 -0.0000 -0.0000 8.6743 -12.9976 6.5786
-12.5950 17.9018 12.4535 -1.0917 21.1417 -0.1741 0.0000 0.0000 0.0000 -13.3840 -8.4417 -6.8466 1.4293 7.5596 21.3841 0.8153 -1.0669 -16.7344 0.8935 -6.0246 -16.8560 0.0000 0.0000 0.0000 16.8816 4.2011 -12.4226 -2.1897 -9.2506 26.5823 -0.1711 9.9907 -9.5673 -0.0261 1.0434 -2.8682 3.0494 2.5729 17.1375 1.6517 4.1275 1.7940 -0.9150 1.9359 -7.5785 -10.4661 -2.2546 -12.7539 3.6470 -0.8259 42.9853 3.5685 -1.3156 18.4612 0.0000 0.0000 0.0000 -83.9357 2.7314 63.5636 78.9025 -59.5295 -50.4044 -0.0000 0.0000 -5.6001 31.7284 21.4905 12.7628 -7.1250 0.0000 -0.0000 3.2361 54.7901 0.7788 0.0000 0.0000 0.0000 79.1720 -4.4213 52.8703 -92.2673 59.9806 -61.9634 0.0000 -0.0000 -10.4229 -14.6735 16.5188 -4.2579 7.1250 -0.0000 -0.0000 8.7355 -13.0806 6.6108
-12.6268 17.9133 12.4881 -0.8615 22.4132 0.0104 0.0000 0.0000 0.0000 -13.3781 -7.8321 -7.2368 1.4133 7.5189 21.2622 0.7852 0.5358 -16.9467 0.7946 -5.6897 -15.8868 0.0000 0.0000 0.0000 16.7821 3.7054 -12.2938 -2.1534 -9.1785 26.3554 -0.2151 9.2006 -9.7998 -0.0266 1.0528 -2.8941 2.8097 2.5400 16.8782 1.6688 4.0327 1.7636 -0.7285 1.9005 -7.4895 -10.5407 -2.2843 -12.7475 3.7750 -0.8752 43.0156 3.6394 -1.3229 18.4858 0.0000 -0.0000 0.0000 -83.9534 2.7175 63.6627 78.9112 -59.5302 -50.4120 -0.0000 0.0000 -5.5969 31.7942 21.4292 12.7609 -7.1250 0.0000 -0.0000 3.3185 54.7356 0.7943 0.0000 -0.0000 0.0000 78.9573 -4.4357 52.9343 -92.2126 59.9815 -61.9160 0.0000 -0.0000 -10.5988 -14.5607 16.4299 -4.2018 7.1250 -0.0000 -0.0000 8.8093 -13.1811 6.6492
-12.6552 17.9210 12.5245 -0.6787 23.7195 0.1862 0.0000 0.0000 0.0000 -13.3518 -7.2280 -7.5808 1.3886 7.4555 21.0722 0.7484 2.0402 -17.2028 0.6463 -5.1427 -14.3161 0.0000 0.0000 0.0000 16.7184 3.1901 -12.1941 -2.1312 -9.1341 26.2156 -0.2564 8.4721 -10.0733 -0.0230 0.9793 -2.6918 2.6392 2.5108 16.6550 1.6821 3.9584 1.7015 -0.5928 1.8713 -7.4481 -10.5174 -2.3252 -12.8451 3.8625 -0.9388 43.1324 3.6764 -1.3281 18.5931 0.0000 0.0000 0.0000 -83.9378 2.6722 63.8388 78.8519 -59.5251 -50.3609 -0.0000 0.0000 -5.6094 31.7213 21.6148 12.8273 -7.1250 0.0000 -0.0000 3.2068 54.9279 0.7825 0.0000 0.0000 0.0000 78.7802 -4.4445 52.9072 -91.9638 59.9854 -61.7006 0.0000 -0.0000 -10.5803 -14.3904 16.4995 -4.1678 7.1250 -0.0000 -0.0000 8.9235 -13.1264 6.7480
-12.6811 17.9289 12.5597 -0.7096 25.0199 0.2374 0.0000 0.0000 0.0000 -13.1204 -6.6578 -7.8775 1.3655 7.3959 20.8938 0.7215 3.3972 -17.6303 0.4755 -4.4223 -12.2679 0.0000 0.0000 0.0000 16.8870 2.6218 -12.0927 -2.1128 -9.0971 26.0995 -0.2998 7.7005 -10.4079 -0.0276 1.0734 -2.9508 2.6671 2.4529 16.4345 1.7445 3.8863 1.6680 -0.5161 1.8389 -7.3671 -10.5940 -2.3835 -12.8645 3.9960 -1.0323 43.1440 3.7420 -1.3523 18.6193 0.0000 -0.0000 0.0000 -83.9118 2.6236 63.9858 78.8200 -59.5224 -50.3334 -0.0000 0.0000 -5.5952 31.6783 21.8500 12.9347 -7.1250 0.0000 -0.0000 3.1179 55.1819 0.7800 0.0000 -0.0000 0.0000 78.5930 -4.5091 52.9490 -91.8949 59.9864 -61.6409 0.0000 -0.0000 -10.6208 -14.5540 16.6312 -4.2497 7.1250 -0.0000 -0.0000 8.8167 -12.9778 6.6930
-12.7089 17.9354 12.5923 -0.8737 26.2136 0.2052 0.0000 0.0000 0.0000 -12.7579 -6.0765 -8.2115 1.3517 7.3600 20.7864 0.6968 4.6874 -18.1605 0.3383 -3.7377 -10.3399 0.0000 0.0000 0.0000 17.2185 2.1520 -11.9715 -2.0939 -9.0590 25.9801 -0.3354 6.8474 -10.6699 -0.0357 1.2201 -3.3546 2.7510 2.4158 16.2424 1.8489 3.8554 1.6466 -0.4368 1.8254 -7.2869 -10.6109 -2.4122 -12.7890 4.0459 -1.0766 43.1111 3.7617 -1.3561 18.5839 -0.0000 0.0000 0.0000 -83.8472 2.6352 64.0555 78.9888 -59.5369 -50.4789 -0.0000 0.0000 -5.6428 31.7343 21.8540 12.9642 -7.1250 0.0000 -0.0000 3.1788 55.1987 0.7966 -0.0000 0.0000 0.0000 78.4298 -4.5906 53.0367 -91.9153 59.9861 -61.6586 0.0000 -0.0000 -10.8864 -14.7031 16.4846 -4.2583 7.1250 -0.0000 -0.0000 8.7153 -13.1124 6.5892
-12.7422 17.9395 12.6219 -1.1500 27.4295 0.0045 0.0000 0.0000 0.0000 -12.2823 -5.0721 -8.6449 1.3448 7.3420 20.7328 0.6740 5.6076 -18.5518 0.2821 -3.4161 -9.4394 0.0000 0.0000 0.0000 17.6899 1.9276 -11.6286 -2.0720 -9.0146 25.8409 -0.3725 5.7397 -10.9783 -0.0394 1.2812 -3.5229 2.8556 2.3876 16.2912 2.0122 3.8556 1.6053 -0.3253 1.8239 -7.3636 -10.5119 -2.4056 -12.7200 3.9363 -1.0295 43.1096 3.7014 -1.3253 18.5566 0.0000 0.0000 0.0000 -83.8293 2.6706 64.2057 79.0624 -59.5431 -50.5423 -0.0000 0.0000 -5.7124 31.8441 21.4771 12.8112 -7.1250 0.0000 -0.0000 3.3649 54.8001 0.8107 0.0000 0.0000 0.0000 78.3004 -4.7263 53.0044 -91.8733 59.9867 -61.6223 0.0000 -0.0000 -10.9571 -14.5634 16.5169 -4.2242 7.1250 -0.0000 -0.0000 8.8087 -13.0927 6.6653
-12.7749 17.9441 12.6499 -1.2998 28.7080 -0.1625 0.0000 0.0000 0.0000 -11.9588 -4.1466 -9.0537 1.3382 7.3246 20.6806 0.6327 6.5669 -18.8334 0.2868 -3.4443 -9.5184 0.0000 0.0000 0.0000 18.0299 1.6894 -11.2828 -2.0529 -8.9754 25.7184 -0.4030 4.6068 -11.3002 -0.0496 1.4368 -3.9514 2.8512 2.3324 16.3072 2.1539 3.7952 1.6430 -0.1587 1.7987 -7.3437 -10.4896 -2.4210 -12.7899 3.7890 -0.9653 43.0303 3.6368 -1.3047 18.5201 0.0000 -0.0000 0.0000 -83.9604 2.5094 64.2160 78.8554 -59.5255 -50.3639 -0.0000 0.0000 -5.5936 31.7748 21.2136 12.6331 -7.1250 0.0000 -0.0000 3.3334 54.4894 0.7779 0.0000 -0.0000 0.0000 78.1809 -4.7026 52.9991 -91.7032 59.9890 -61.4750 0.0000 -0.0000 -10.7830 -14.6968 16.5008 -4.2605 7.1250 -0.0000 -0.0000 8.7197 -13.0966 6.5956
-12.8016 17.9517 12.6813 -1.5197 30.0193 -0.3515 0.0000 0.0000 0.0000 -11.5998 -3.8320 -9.2363 1.3291 7.3007 20.6094 0.5779 7.8388 -19.3032 0.1961 -2.8513 -7.8651 0.0000 0.0000 0.0000 18.4217 1.3387 -11.0004 -2.0369 -8.9424 25.6154 -0.4318 3.5154 -11.7061 -0.0578 1.5513 -4.2671 2.9416 2.2433 16.2161 2.2762 3.7010 1.6713 -0.0541 1.7551 -7.2675 -10.5144 -2.4242 -12.7965 3.8625 -0.9700 42.9739 3.6760 -1.2910 18.4877 -0.0000 0.0000 0.0000 -83.9531 2.4034 64.2149 78.7932 -59.5201 -50.3103 -0.0000 0.0000 -5.5090 32.2753 22.5103 13.5930 -7.1250 0.0000 -0.0000 3.6613 56.0546 0.9938 -0.0000 0.0000 0.0000 78.0627 -4.6283 53.0620 -91.4706 59.9918 -61.2735 0.0000 -0.0000 -10.6276 -14.8109 16.5324 -4.3029 7.1250 -0.0000 -0.0000 8.6443 -13.0537 6.5451
-12.8245 17.9565 12.7140 -1.6382 31.3654 -0.4273 0.0000 0.0000 0.0000 -11.3881 -3.6197 -9.4439 1.3134 7.2591 20.4853 0.5240 9.0913 -19.8755 0.1078 -2.1170 -5.8292 0.0000 0.0000 0.0000 18.6916 0.9450 -10.8267 -2.0235 -8.9148 25.5292 -0.4515 2.5002 -12.0787 -0.0603 1.5845 -4.3587 2.9847 2.1855 16.1537 2.3540 3.6406 1.5916 0.0185 1.7250 -7.3228 -10.5934 -2.4652 -12.7540 4.0590 -1.0659 43.0173 3.7734 -1.3080 18.5163 -0.0000 0.0000 0.0000 -83.8559 2.5045 64.3740 78.9367 -59.5324 -50.4339 -0.0000 0.0000 -5.4784 32.9284 24.9843 15.2985 -7.1250 0.0000 -0.0000 3.9163 58.9743 1.3388 -0.0000 0.0000 0.0000 78.0511 -4.8002 52.9910 -91.3452 59.9932 -61.1650 0.0000 -0.0000 -10.6053 -14.7086 16.7777 -4.3333 7.1250 -0.0000 -0.0000 8.7163 -12.8145 6.6451
-12.8470 17.9587 12.7455 -1.7030 32.6798 -0.4377 0.0000 0.0000 0.0000 -11.2432 -3.2645 -9.7418 1.2947 7.2093 20.3370 0.4800 10.1465 -20.4532 0.0353 -1.2127 -3.3343 0.0000 0.0000 0.0000 18.8946 0.6010 -10.6911 -2.0129 -8.8930 25.4611 -0.4643 1.4982 -12.4392 -0.0461 1.3857 -3.8107 2.9721 2.1898 16.0339 2.4272 3.6490 1.5129 0.1050 1.7305 -7.3472 -10.6338 -2.5313 -12.7345 4.1113 -1.1477 43.0292 3.7952 -1.3304 18.5307 0.0000 -0.0000 0.0000 -83.8771 2.5648 64.5173 78.9176 -59.5308 -50.4175 -0.0000 0.0000 -5.4015 32.9284 25.2864 15.4631 -7.1250 0.0000 -0.0000 3.8478 59.3105 1.3463 0.0000 -0.0000 0.0000 78.0146 -5.0940 52.7677 -91.6423 59.9898 -61.4222 0.0000 -0.0000 -10.7815 -14.5492 16.7100 -4.2677 7.1250 -0.0000 -0.0000 8.8211 -12.8983 6.7113
